<?xml version="1.0" standalone="no"?><!DOCTYPE svg PUBLIC "-//W3C//DTD SVG 1.1//EN" "http://www.w3.org/Graphics/SVG/1.1/DTD/svg11.dtd"><svg class="icon" height="512" viewBox="0 0 1024 1024" version="1.1" xmlns="http://www.w3.org/2000/svg"><path d="M508.417405 149.936871c-212.408691 0-385.16836 143.022391-385.16836 320.029804 0 77.882811 33.277918 148.686391 87.795579 204.620307l-87.795579 239.314481 228.693586-152.226007c48.145533 18.409279 100.539834 27.612894 156.474774 27.612894 212.408691 0 385.16836-143.022391 385.16836-320.029804S720.827119 149.936871 508.417405 149.936871zM648.607284 199.49866l75.051323 0-57.350173 89.211834 55.933917 0 0 11.328L644.35954 300.038494l57.350173-91.336218-53.102429 0C648.607284 209.410404 648.607284 199.49866 648.607284 199.49866zM294.592458 355.973434l214.533075 0L344.862375 612.279914l160.01439 0 0 33.985022L281.140075 646.264936l164.263158-258.430864-148.686391 0 0-31.861662L294.592458 355.972411zM505.585917 262.512832l135.942135 0L536.739451 427.484118l101.247962 0 0 21.240767L493.548766 448.724885l104.788601-164.971285-94.875834 0 0-21.240767L505.585917 262.512832z" /></svg>